<svg width="121" height="27" viewBox="0 0 121 27" fill="none" xmlns="http://www.w3.org/2000/svg">
<path d="M13.2562 21.6041H29.6219V11.2068C29.6222 9.73503 29.331 8.2776 28.765 6.91779C28.199 5.55799 27.3693 4.32244 26.3232 3.28173C25.2771 2.24102 24.0352 1.41554 22.6684 0.852454C21.3015 0.289366 19.8366 -0.000301021 18.3572 2.34739e-07H16.6999C15.2207 2.03918e-07 13.756 0.28989 12.3895 0.853113C11.0229 1.41634 9.78124 2.24186 8.7354 3.28254C7.68957 4.32322 6.86004 5.55866 6.29419 6.91832C5.72834 8.27798 5.43725 9.73522 5.43755 11.2068V19.1688H0V21.6041H0.0138301C0.726084 21.6041 1.43136 21.7437 2.0894 22.0149C2.74744 22.286 3.34534 22.6835 3.84898 23.1845C4.35262 23.6856 4.75213 24.2804 5.0247 24.9351C5.29727 25.5897 5.43755 26.2914 5.43755 27H7.83708C7.83678 26.2917 7.97671 25.5903 8.24888 24.9358C8.52106 24.2813 8.92014 23.6865 9.42335 23.1855C9.92656 22.6844 10.524 22.2869 11.1817 22.0156C11.8393 21.7442 12.5442 21.6044 13.2562 21.6041ZM7.83708 19.1688V11.2068C7.83647 8.8675 8.76982 6.62372 10.4319 4.96893C12.0939 3.31414 14.3485 2.38384 16.6999 2.38262H18.3572C19.5219 2.38262 20.6752 2.61088 21.7512 3.05437C22.8272 3.49785 23.8048 4.14788 24.6283 4.96731C25.4517 5.78674 26.1048 6.75953 26.5503 7.83011C26.9958 8.9007 27.225 10.0481 27.2246 11.2068V19.1688H7.83708Z" fill="#F2F9FF"/>
<path d="M18.1488 6.87974C19.2735 6.88095 20.3518 7.32582 21.1473 8.11679C21.9428 8.90777 22.3905 9.98029 22.3924 11.0992V14.6766H12.6629V11.0992C12.6647 9.98029 13.1124 8.90777 13.9079 8.11679C14.7034 7.32582 15.7817 6.88095 16.9064 6.87974H18.1488ZM18.1488 4.49482H16.9064C15.1456 4.49482 13.4568 5.19056 12.2115 6.42906C10.9662 7.66756 10.2662 9.3474 10.2656 11.0992V17.0615H24.7873V11.0992C24.7876 10.2316 24.6161 9.37244 24.2827 8.57076C23.9492 7.76909 23.4603 7.04061 22.8439 6.42691C22.2274 5.81321 21.4955 5.32631 20.69 4.99402C19.8844 4.66172 19.0209 4.49054 18.1488 4.49023V4.49482Z" fill="#F2F9FF"/>
<path d="M28.7877 0.793475H28.5572V1.38741H28.4258V0.793475H28.1953V0.687988H28.7854L28.7877 0.793475Z" fill="#F2F9FF"/>
<path d="M28.8555 0.687988H29.0399L29.162 1.00445C29.1897 1.08012 29.2151 1.14892 29.2335 1.20396C29.2519 1.14892 29.2773 1.08012 29.3049 1.00445L29.434 0.687988H29.6184V1.38741H29.4894V1.07324C29.4894 0.972344 29.4894 0.894375 29.4894 0.843925C29.4709 0.898962 29.4432 0.975401 29.4064 1.07324L29.2911 1.3897H29.1874L29.0721 1.07324C29.0353 0.972344 29.0076 0.895904 28.9892 0.843925V1.38741H28.8624L28.8555 0.687988Z" fill="#F2F9FF"/>
<path d="M46.1254 5.45302C47.427 4.71473 48.9055 4.34145 50.4035 4.37293C51.7735 4.35045 53.1291 4.65476 54.3566 5.2604C55.4913 5.81747 56.4487 6.67629 57.1227 7.74163C57.8062 8.85598 58.1852 10.1287 58.2222 11.4337H55.5506C55.5076 10.0149 55.0212 8.86835 54.0915 7.99388C53.1619 7.11941 51.9325 6.6837 50.4035 6.68676C48.7393 6.68676 47.4054 7.26159 46.402 8.41124C45.3985 9.56089 44.896 11.0897 44.8945 12.9976C44.8741 14.188 45.1058 15.3694 45.5745 16.4649C45.9796 17.4244 46.6482 18.251 47.5038 18.8498C48.3562 19.4323 49.3695 19.7368 50.4035 19.7212C51.9156 19.7212 53.1449 19.2626 54.0915 18.3453C54.5556 17.8882 54.9235 17.3438 55.174 16.7438C55.4245 16.1438 55.5525 15.5002 55.5506 14.8505H58.206C58.1908 16.1738 57.8225 17.4693 57.1388 18.6045C56.4729 19.6827 55.5194 20.5559 54.3843 21.127C53.1487 21.7437 51.7811 22.0529 50.3989 22.0282C48.8967 22.0602 47.4152 21.6751 46.1208 20.916C44.8807 20.1654 43.885 19.0745 43.2533 17.7743C42.5498 16.3071 42.2016 14.6962 42.2368 13.071C42.2049 11.4912 42.5551 9.92687 43.2579 8.50984C43.8956 7.23583 44.8918 6.17377 46.1254 5.45302Z" fill="#F2F9FF"/>
<path d="M66.384 12.6265C68.0744 12.6265 69.3275 12.5837 70.1435 12.498C70.8385 12.4552 71.5068 12.2166 72.0705 11.8101C72.5315 11.4455 72.762 10.8538 72.762 10.0375C72.762 9.15687 72.3733 8.36725 71.5957 7.66859C70.8181 6.96993 69.5888 6.6206 67.9076 6.6206C66.2665 6.6206 65.0133 7.06701 64.1481 7.95982C63.281 8.84932 62.7409 10.0039 62.6153 11.2368H60.0245C60.0132 10.0215 60.3507 8.82822 60.9972 7.79701C61.6733 6.72943 62.6297 5.86592 63.7632 5.29973C65.0778 4.65256 66.5313 4.33453 67.9975 4.37328C70.5669 4.37328 72.4355 4.96416 73.6034 6.14591C74.7713 7.32767 75.3544 8.8641 75.3529 10.7552V21.5332H72.8865L72.7574 15.9883H72.6283C72.4117 18.072 71.6433 19.6008 70.3233 20.5747C68.9894 21.5523 67.3698 22.0671 65.7133 22.04C63.9845 22.04 62.6015 21.6372 61.5642 20.8315C60.527 20.0258 60.0029 18.8915 59.9922 17.4284C59.9922 15.9241 60.5377 14.7477 61.6288 13.8992C62.7198 13.0507 64.3049 12.6265 66.384 12.6265ZM69.7056 19.0084C70.638 18.4974 71.4199 17.7527 71.9737 16.8482C72.482 16.0355 72.7563 15.0995 72.7666 14.1423V11.6198H72.6376C72.5638 12.1961 72.2956 12.7305 71.8769 13.1355C71.4758 13.4994 70.822 13.7838 69.9153 13.9886C68.6234 14.2319 67.3117 14.3563 65.9968 14.3601C65.0026 14.4044 64.2142 14.6674 63.6318 15.149C63.3475 15.3804 63.1207 15.674 62.9692 16.0069C62.8177 16.3399 62.7455 16.7031 62.7582 17.0684C62.7582 18.9167 63.9568 19.8408 66.3541 19.8408C67.5224 19.8612 68.6754 19.574 69.6964 19.0084H69.7056Z" fill="#F2F9FF"/>
<path d="M92.0682 10.4663V21.5241H89.4773V11.3034C89.4773 9.92744 89.067 8.82671 88.2464 8.00116C87.4258 7.17561 86.3456 6.76131 85.0056 6.75825C84.2992 6.73673 83.5976 6.88028 82.9571 7.17738C82.3166 7.47448 81.7551 7.91685 81.3175 8.46897C80.3955 9.60639 79.9345 11.0993 79.9345 12.9476V21.5241H77.293V4.8893H79.7547L79.9161 9.72564H80.1097C80.3341 8.11429 80.9841 6.8194 82.0598 5.84097C83.1479 4.85815 84.576 4.33224 86.0451 4.37333C87.86 4.37333 89.3198 4.93211 90.4247 6.04965C91.5296 7.1672 92.0774 8.63943 92.0682 10.4663Z" fill="#F2F9FF"/>
<path d="M99.4212 6.82244V17.2358C99.4212 18.1164 99.6048 18.6966 99.9721 18.9763C100.341 19.2561 100.977 19.396 101.885 19.396C102.469 19.396 103.181 19.3639 104.022 19.2997V21.5929C103.117 21.6571 102.318 21.6892 101.625 21.6892C100.374 21.6892 99.4127 21.5707 98.7412 21.3337C98.4267 21.2309 98.1359 21.0669 97.8858 20.8511C97.6357 20.6354 97.4313 20.3722 97.2844 20.0771C96.9771 19.4763 96.8234 18.5842 96.8234 17.4009V6.82244H93.8477V4.88928H96.8304V0.532227H99.3244L99.4212 4.88928H104.031V6.82244H99.4212Z" fill="#F2F9FF"/>
<path d="M112.023 12.6263C113.714 12.6263 114.967 12.5835 115.783 12.4979C116.477 12.4541 117.146 12.2156 117.71 11.8099C118.171 11.4453 118.401 10.8537 118.401 10.0373C118.401 9.1567 118.012 8.36708 117.235 7.66842C116.457 6.96976 115.228 6.62043 113.547 6.62043C111.904 6.62043 110.651 7.06684 109.787 7.95965C108.924 8.85045 108.387 10.0049 108.264 11.2366H105.673C105.662 10.0217 105.999 8.8287 106.643 7.79684C107.32 6.72994 108.276 5.86662 109.409 5.29955C110.722 4.65348 112.173 4.33549 113.637 4.37311C116.208 4.37311 118.076 4.96398 119.243 6.14574C120.409 7.3275 120.992 8.86393 120.992 10.7551V21.533H118.535L118.406 15.9881H118.277C118.06 18.0719 117.288 19.6006 115.96 20.5745C114.626 21.5521 113.007 22.0669 111.35 22.0398C109.621 22.0398 108.238 21.637 107.201 20.8313C106.164 20.0256 105.644 18.8913 105.641 17.4282C105.641 15.9239 106.185 14.7475 107.275 13.899C108.364 13.0505 109.947 12.6263 112.023 12.6263ZM115.345 19.0082C116.277 18.4972 117.059 17.7525 117.613 16.8481C118.121 16.0353 118.396 15.0993 118.406 14.1421V11.6196H118.277C118.203 12.196 117.935 12.7304 117.516 13.1354C117.115 13.4992 116.461 13.7836 115.555 13.9884C114.263 14.2317 112.951 14.3561 111.636 14.3599C110.643 14.4043 109.855 14.6672 109.271 15.1488C108.987 15.3802 108.76 15.6738 108.608 16.0068C108.457 16.3397 108.385 16.7029 108.397 17.0682C108.397 18.9165 109.596 19.8407 111.993 19.8407C113.165 19.8623 114.321 19.5751 115.345 19.0082Z" fill="#F2F9FF"/>
</svg>
