<svg width="106" height="24" viewBox="0 0 106 24" fill="none" xmlns="http://www.w3.org/2000/svg">
<path d="M11.6129 19.2037H25.9497V9.96161C25.95 8.65336 25.6949 7.35787 25.1991 6.14915C24.7033 4.94043 23.9764 3.84217 23.06 2.91709C22.1436 1.99202 21.0556 1.25826 19.8582 0.757737C18.6609 0.257214 17.3775 -0.000267574 16.0815 2.08657e-07H14.6297C13.3339 1.8126e-07 12.0507 0.25768 10.8536 0.758322C9.65642 1.25897 8.56869 1.99276 7.65251 2.91781C6.73632 3.84286 6.00962 4.94104 5.51392 6.14962C5.01821 7.35821 4.76321 8.65353 4.76348 9.96161V17.0389H0V19.2037H0.0121157C0.636073 19.2037 1.25392 19.3277 1.83038 19.5688C2.40685 19.8098 2.93063 20.1631 3.37184 20.6085C3.81304 21.0539 4.16302 21.5826 4.4018 22.1645C4.64058 22.7464 4.76348 23.3701 4.76348 24H6.86555C6.86528 23.3704 6.98786 22.7469 7.2263 22.1651C7.46473 21.5834 7.81434 21.0547 8.25517 20.6093C8.696 20.1639 9.21941 19.8106 9.79553 19.5694C10.3716 19.3282 10.9892 19.2039 11.6129 19.2037ZM6.86555 17.0389V9.96161C6.86501 7.88222 7.68265 5.88775 9.13865 4.41683C10.5946 2.9459 12.5698 2.11897 14.6297 2.11789H16.0815C17.1018 2.11789 18.1121 2.32079 19.0547 2.71499C19.9974 3.1092 20.8538 3.687 21.5752 4.41538C22.2965 5.14377 22.8687 6.00847 23.259 6.9601C23.6492 7.91173 23.85 8.93165 23.8497 9.96161V17.0389H6.86555Z" fill="#00264D"/>
<path d="M15.8981 6.11619C16.8834 6.11727 17.828 6.5127 18.5249 7.21579C19.2218 7.91888 19.614 8.87224 19.6156 9.86683V13.0467H11.0922V9.86683C11.0938 8.87224 11.4861 7.91888 12.183 7.21579C12.8798 6.5127 13.8245 6.11727 14.8097 6.11619H15.8981ZM15.8981 3.99626H14.8097C13.2672 3.99626 11.7878 4.6147 10.6968 5.71559C9.60588 6.81647 8.99272 8.30967 8.99219 9.86683V15.1666H21.7136V9.86683C21.7139 9.09563 21.5637 8.33192 21.2716 7.61933C20.9795 6.90673 20.5512 6.25918 20.0112 5.71367C19.4711 5.16816 18.83 4.73537 18.1242 4.43999C17.4185 4.14462 16.6621 3.99246 15.8981 3.99219V3.99626Z" fill="#00264D"/>
<path d="M25.2221 0.705094H25.0202V1.23304H24.9051V0.705094H24.7031V0.611328H25.2201L25.2221 0.705094Z" fill="#00264D"/>
<path d="M25.2812 0.611328H25.4428L25.5498 0.892626C25.574 0.959893 25.5963 1.02104 25.6124 1.06997C25.6286 1.02104 25.6508 0.959893 25.675 0.892626L25.7881 0.611328H25.9496V1.23304H25.8366V0.953778C25.8366 0.864088 25.8366 0.794783 25.8366 0.749939C25.8204 0.79886 25.7962 0.866806 25.7639 0.953778L25.6629 1.23508H25.572L25.4711 0.953778C25.4388 0.864088 25.4145 0.796142 25.3984 0.749939V1.23304H25.2873L25.2812 0.611328Z" fill="#00264D"/>
<path d="M40.4086 4.84844C41.5489 4.19217 42.8441 3.86037 44.1564 3.88835C45.3566 3.86837 46.5441 4.13887 47.6195 4.67721C48.6135 5.17239 49.4522 5.93578 50.0426 6.88275C50.6415 7.87329 50.9735 9.00459 51.0058 10.1646H48.6655C48.6278 8.90347 48.2017 7.88428 47.3873 7.10697C46.5728 6.32967 45.4959 5.94237 44.1564 5.94509C42.6985 5.94509 41.53 6.45605 40.651 7.47796C39.7719 8.49987 39.3317 9.8588 39.3303 11.5547C39.3125 12.6129 39.5155 13.663 39.926 14.6368C40.2809 15.4897 40.8667 16.2244 41.6162 16.7567C42.3629 17.2745 43.2506 17.5452 44.1564 17.5313C45.4811 17.5313 46.558 17.1236 47.3873 16.3083C47.7938 15.9019 48.1161 15.418 48.3356 14.8846C48.555 14.3513 48.6671 13.7793 48.6655 13.2018H50.9917C50.9784 14.378 50.6557 15.5296 50.0568 16.5386C49.4734 17.497 48.6381 18.2732 47.6437 18.7808C46.5613 19.329 45.3632 19.6039 44.1524 19.5819C42.8364 19.6104 41.5386 19.268 40.4046 18.5933C39.3183 17.9261 38.446 16.9564 37.8926 15.8007C37.2763 14.4965 36.9713 13.0646 37.0021 11.62C36.9742 10.2157 37.281 8.82519 37.8967 7.56561C38.4552 6.43315 39.328 5.4891 40.4086 4.84844Z" fill="#00264D"/>
<path d="M58.1542 11.2237C59.635 11.2237 60.7328 11.1857 61.4476 11.1096C62.0564 11.0715 62.6419 10.8594 63.1357 10.4981C63.5396 10.174 63.7415 9.64806 63.7415 8.9224C63.7415 8.13966 63.4009 7.43777 62.7197 6.81674C62.0386 6.19571 60.9616 5.8852 59.4889 5.8852C58.0512 5.8852 56.9534 6.282 56.1954 7.07562C55.4358 7.86628 54.9626 8.89261 54.8526 9.98848H52.583C52.5731 8.90821 52.8687 7.84752 53.4351 6.93089C54.0274 5.98194 54.8653 5.21437 55.8582 4.71108C57.0098 4.13583 58.2832 3.85313 59.5676 3.88757C61.8185 3.88757 63.4554 4.4128 64.4785 5.46325C65.5016 6.5137 66.0125 7.87942 66.0112 9.56041V19.1408H63.8505L63.7375 14.212H63.6244C63.4346 16.0642 62.7615 17.4232 61.6051 18.2888C60.4366 19.1578 59.0177 19.6154 57.5665 19.5913C56.0521 19.5913 54.8405 19.2333 53.9318 18.5171C53.0232 17.8009 52.5641 16.7926 52.5547 15.4921C52.5547 14.1549 53.0326 13.1093 53.9884 12.355C54.9442 11.6008 56.3328 11.2237 58.1542 11.2237ZM61.0639 16.8966C61.8807 16.4423 62.5657 15.7804 63.0509 14.9764C63.4962 14.254 63.7365 13.422 63.7455 12.5711V10.3289H63.6325C63.5678 10.8412 63.3329 11.3162 62.9661 11.6763C62.6147 11.9997 62.0419 12.2524 61.2477 12.4345C60.1159 12.6508 58.9668 12.7613 57.8149 12.7648C56.9439 12.8042 56.2533 13.0379 55.7431 13.466C55.4941 13.6717 55.2954 13.9327 55.1626 14.2286C55.0299 14.5245 54.9666 14.8474 54.9778 15.1721C54.9778 16.815 56.0278 17.6365 58.1279 17.6365C59.1514 17.6546 60.1615 17.3993 61.0559 16.8966H61.0639Z" fill="#00264D"/>
<path d="M80.6545 9.30276V19.1319H78.3848V10.0468C78.3848 8.82374 78.0254 7.84531 77.3065 7.11149C76.5877 6.37767 75.6413 6.0094 74.4674 6.00668C73.8486 5.98755 73.234 6.11516 72.6729 6.37924C72.1118 6.64333 71.6199 7.03655 71.2366 7.52732C70.4289 8.53836 70.025 9.86535 70.025 11.5083V19.1319H67.7109V4.34539H69.8675L70.0089 8.64436H70.1785C70.375 7.21205 70.9445 6.06104 71.8868 5.19133C72.8401 4.31771 74.0912 3.85023 75.3781 3.88676C76.968 3.88676 78.2469 4.38344 79.2148 5.37682C80.1827 6.37019 80.6626 7.67884 80.6545 9.30276Z" fill="#00264D"/>
<path d="M87.0936 6.06396V15.3203C87.0936 16.103 87.2544 16.6187 87.5762 16.8674C87.8992 17.1161 88.4566 17.2404 89.2522 17.2404C89.7637 17.2404 90.3877 17.2119 91.124 17.1548V19.1932C90.3311 19.2503 89.6311 19.2788 89.024 19.2788C87.9282 19.2788 87.0861 19.1735 86.4979 18.9629C86.2224 18.8715 85.9676 18.7257 85.7485 18.5339C85.5294 18.3421 85.3503 18.1082 85.2217 17.8459C84.9524 17.3118 84.8178 16.5189 84.8178 15.467V6.06396H82.2109V4.3456H84.8239V0.472656H87.0087L87.0936 4.3456H91.1321V6.06396H87.0936Z" fill="#00264D"/>
<path d="M98.1383 11.2236C99.6191 11.2236 100.717 11.1855 101.432 11.1094C102.04 11.0705 102.626 10.8585 103.12 10.4979C103.524 10.1738 103.726 9.64791 103.726 8.92225C103.726 8.1395 103.385 7.43762 102.704 6.81659C102.023 6.19556 100.946 5.88504 99.473 5.88504C98.0339 5.88504 96.9361 6.28185 96.1796 7.07546C95.4228 7.86728 94.9526 8.89348 94.8448 9.98832H92.5751C92.5656 8.90838 92.8604 7.84795 93.4253 6.93074C94.0183 5.98239 94.856 5.21499 95.8484 4.71093C96.9982 4.13665 98.2693 3.85398 99.5517 3.88742C101.804 3.88742 103.441 4.41265 104.463 5.4631C105.484 6.51355 105.995 7.87927 105.995 9.56026V19.1407H103.843L103.73 14.2119H103.617C103.427 16.0641 102.75 17.423 101.587 18.2886C100.419 19.1576 98.9998 19.6153 97.5486 19.5912C96.0342 19.5912 94.8226 19.2331 93.9139 18.5169C93.0052 17.8008 92.5496 16.7925 92.5469 15.492C92.5469 14.1548 93.0241 13.1091 93.9785 12.3549C94.933 11.6007 96.3196 11.2236 98.1383 11.2236ZM101.048 16.8964C101.865 16.4422 102.55 15.7802 103.035 14.9763C103.48 14.2538 103.721 13.4218 103.73 12.571V10.3287H103.617C103.552 10.8411 103.317 11.3161 102.95 11.6761C102.599 11.9995 102.026 12.2523 101.232 12.4344C100.1 12.6506 98.9509 12.7612 97.799 12.7646C96.9294 12.804 96.2388 13.0378 95.7272 13.4658C95.4782 13.6715 95.2795 13.9325 95.1468 14.2285C95.014 14.5244 94.9508 14.8473 94.9619 15.1719C94.9619 16.8149 96.012 17.6364 98.112 17.6364C99.1382 17.6556 100.151 17.4003 101.048 16.8964Z" fill="#00264D"/>
</svg>
