<svg width="20" height="29" viewBox="0 0 20 29" fill="none" xmlns="http://www.w3.org/2000/svg">
<path d="M18.4531 16.8403L15.5465 14.507C15.1331 14.187 14.6131 14.0003 14.0798 14.0003H10.9998V10.0003H16.9598C18.2531 10.0003 19.2931 8.96033 19.2931 7.66699V3.00033C19.2931 1.70699 18.2531 0.666992 16.9598 0.666992H5.94646C5.42646 0.666992 4.90646 0.853659 4.49312 1.17366L1.57313 3.50699C0.413125 4.44033 0.413125 6.22699 1.57313 7.16033L4.49312 9.49366C4.90646 9.81366 5.42646 10.0003 5.94646 10.0003H8.99979V14.0003H3.06646C1.77313 14.0003 0.733125 15.0403 0.733125 16.3337V21.0003C0.733125 22.2937 1.77313 23.3337 3.06646 23.3337H8.99979V26.3337H5.99979C5.45312 26.3337 4.99979 26.787 4.99979 27.3337C4.99979 27.8803 5.45312 28.3337 5.99979 28.3337H13.9998C14.5465 28.3337 14.9998 27.8803 14.9998 27.3337C14.9998 26.787 14.5465 26.3337 13.9998 26.3337H10.9998V23.3337H14.0798C14.6131 23.3337 15.1331 23.147 15.5465 22.827L18.4531 20.4937C19.6265 19.5603 19.6265 17.7737 18.4531 16.8403Z" fill="#003366"/>
</svg>
