<svg width="24" height="28" viewBox="0 0 24 28" fill="none" xmlns="http://www.w3.org/2000/svg">
<path d="M20 0.666992H4C1.78667 0.666992 0 2.44033 0 4.62699V19.1737C0 21.3603 1.78667 23.147 4 23.147H5.01333C6.06667 23.147 7.09333 23.5603 7.84 24.307L10.12 26.5603C11.16 27.587 12.84 27.587 13.88 26.5603L16.16 24.307C16.9067 23.5603 17.9333 23.147 18.9867 23.147H20C22.2133 23.147 24 21.3603 24 19.1737V4.62699C24 2.44033 22.2133 0.666992 20 0.666992ZM12 5.40033C13.44 5.40033 14.6 6.57366 14.6 8.00033C14.6 9.41366 13.48 10.547 12.0933 10.6003C12.04 10.6003 11.96 10.6003 11.8933 10.6003C10.4933 10.547 9.38667 9.41366 9.38667 8.00033C9.4 6.57366 10.56 5.40033 12 5.40033ZM15.6667 17.587C13.6533 18.9337 10.3467 18.9337 8.33333 17.587C6.56 16.4137 6.56 14.467 8.33333 13.2803C10.36 11.9337 13.6667 11.9337 15.6667 13.2803C17.44 14.467 17.44 16.4003 15.6667 17.587Z" fill="#F863A7"/>
</svg>
